<svg width="2610" height="3884" viewBox="0 0 2610 3884" fill="none" xmlns="http://www.w3.org/2000/svg">
<path d="M419 0H2147.5L2563.5 640L13.5 638.5L419 0Z" fill="#fff"/>
<path d="M440.5 1267L895 578.5L1728.5 1914L1298 2555.5L440.5 1267Z" fill="#fff"/>
<path d="M1317 2584L1747 1947L2609.5 3237.5L2184 3884L1317 2584Z" fill="#fff"/>
<rect x="501" y="3243" width="1683" height="640" fill="#fff"/>
<path d="M499 2592L932 3245L501 3883L0 3134.5L499 2592Z" fill="#fff"/>
<path d="M2119.01 1328L1711 689L2556 689L2119.01 1328Z" fill="#fff"/>
<path d="M13.5 638.5L2563.5 640L2569 649L20.5 649L13.5 638.5Z" fill="fff"/>
</svg>
